<svg xmlns="http://www.w3.org/2000/svg" version="1.1" xmlns:xlink="http://www.w3.org/1999/xlink" xmlns:svgjs="http://svgjs.dev/svgjs" width="512" height="512"><svg xmlns="http://www.w3.org/2000/svg" xmlns:xlink="http://www.w3.org/1999/xlink" version="1.1" id="SvgjsSvg1690" x="0px" y="0px" viewBox="0 0 512 512" style="enable-background:new 0 0 512 512;" xml:space="preserve">
<path style="fill:#FFF082;" d="M337.214,342.436c56.856-29.425,95.718-88.771,95.718-157.208  c0-100.878-84.421-182.036-186.468-176.681c-91.524,4.803-165.533,81.436-167.36,173.068  c-1.397,70.026,37.908,131.002,95.857,160.911c17.35,8.955,27.959,27.143,27.959,46.668v70.28c0,9.772,7.921,17.693,17.693,17.693  h70.773c9.772,0,17.693-7.921,17.693-17.693v-70.239C309.079,369.629,319.8,351.447,337.214,342.436z"></path>
<circle style="fill:#FFFFAA;" cx="255.999" cy="185.226" r="141.546"></circle>
<circle style="fill:#FFFFE5;" cx="255.999" cy="185.226" r="88.466"></circle>
<path style="fill:#7F8499;" d="M229.46,477.166c0,14.658,11.882,26.54,26.54,26.54c14.658,0,26.54-11.882,26.54-26.54v-8.847h-53.08  V477.166z"></path>
<path style="fill:#AFB9D2;" d="M291.386,477.166h-70.773c-9.772,0-17.693-7.921-17.693-17.693v-53.08h106.159v53.08  C309.079,469.245,301.157,477.166,291.386,477.166z"></path>
<path style="fill:#FFDC64;" d="M238.307,406.393v-12.39c0-13.984-8.235-26.657-21.014-32.337l-40.36-17.939  c16.137,9.292,25.988,26.718,25.988,45.465v17.2L238.307,406.393L238.307,406.393z"></path>
<path style="fill:#959CB5;" d="M309.079,450.074v-16.587h-70.773v-27.093H202.92v53.08c0,9.771,7.922,17.693,17.693,17.693H256  c-9.771,0-17.693-7.922-17.693-17.693v-9.4H309.079z"></path>
<path d="M383.476,50.846C346.258,15.53,297.446-2.433,246.03,0.265c-46.355,2.432-89.983,22.495-122.845,56.491  c-32.847,33.981-51.446,78.265-52.373,124.693c-0.706,35.378,8.59,69.95,26.883,99.979c17.758,29.152,43.162,52.826,73.463,68.466  c14.475,7.473,23.469,22.531,23.469,39.299v70.28c0,14.329,11.658,25.987,25.987,25.987h1.558C225.902,500.675,239.65,512,256,512  s30.096-11.325,33.828-26.54h1.558c14.329,0,25.987-11.658,25.987-25.987v-70.239c0-16.773,9.063-31.882,23.653-39.433  c61.806-31.988,100.2-95.048,100.2-164.574C441.226,133.908,420.717,86.184,383.476,50.846z M256,495.412  c-7.073,0-13.205-4.054-16.231-9.952h32.464C269.204,491.36,263.073,495.412,256,495.412z M291.386,468.873h-70.773  c-5.183,0-9.4-4.216-9.4-9.4v-9.4H256c4.58,0,8.294-3.712,8.294-8.294s-3.713-8.294-8.294-8.294h-44.786v-18.799h89.572v18.799h-9.4  c-4.58,0-8.294,3.712-8.294,8.294s3.713,8.294,8.294,8.294h9.4v9.4C300.786,464.656,296.569,468.873,291.386,468.873z   M333.402,335.07c-20.118,10.412-32.616,31.168-32.616,54.164v8.865h-89.572v-8.906c0-23.001-12.434-43.707-32.448-54.038  c-27.596-14.243-50.731-35.804-66.905-62.355c-16.648-27.329-25.108-58.803-24.465-91.021  c0.843-42.228,17.787-82.536,47.715-113.497c29.936-30.97,69.636-49.242,111.788-51.455c3.075-0.161,6.137-0.241,9.189-0.241  c43.427,0,84.312,16.25,115.97,46.291c33.907,32.174,52.58,75.625,52.58,122.35C424.638,248.529,389.679,305.944,333.402,335.07z"></path>
<path d="M285.163,97.741c-4.345-1.444-9.042,0.9-10.491,5.245l-53.08,159.239c-1.449,4.346,0.9,9.043,5.246,10.491  c0.87,0.29,1.754,0.428,2.624,0.428c3.472,0,6.708-2.197,7.867-5.673l53.08-159.239C291.856,103.887,289.507,99.189,285.163,97.741z  "></path>
<path d="M199.938,126.284c-3.239-3.238-8.491-3.238-11.728,0l-53.08,53.08c-3.239,3.24-3.239,8.491,0,11.73l53.08,53.08  c1.619,1.619,3.742,2.428,5.864,2.428s4.245-0.809,5.864-2.428c3.239-3.24,3.239-8.491,0-11.73l-47.215-47.214l47.215-47.214  C203.177,134.774,203.177,129.523,199.938,126.284z"></path>
<path d="M376.87,179.364l-53.08-53.08c-3.239-3.238-8.491-3.238-11.728,0c-3.239,3.24-3.239,8.491,0,11.73l47.215,47.214  l-47.215,47.214c-3.239,3.24-3.239,8.491,0,11.73c1.619,1.619,3.742,2.428,5.864,2.428c2.122,0,4.245-0.809,5.864-2.428l53.08-53.08  C380.109,187.853,380.109,182.603,376.87,179.364z"></path>
<g>
</g>
<g>
</g>
<g>
</g>
<g>
</g>
<g>
</g>
<g>
</g>
<g>
</g>
<g>
</g>
<g>
</g>
<g>
</g>
<g>
</g>
<g>
</g>
<g>
</g>
<g>
</g>
<g>
</g>
</svg><style>@media (prefers-color-scheme: light) { :root { filter: none; } }
@media (prefers-color-scheme: dark) { :root { filter: none; } }
</style></svg>